<svg xmlns="http://www.w3.org/2000/svg"  viewBox="0 0 64 64" width="1024px" height="1024px"><defs><linearGradient id="LJKIgoSN2gWnqmGBmAGoZa" x1="10.01" x2="53.99" y1="32" y2="32" gradientUnits="userSpaceOnUse"><stop offset="0" stop-color="#0c90f2"/><stop offset=".14" stop-color="#1092f2"/><stop offset=".27" stop-color="#1c97f1"/><stop offset=".4" stop-color="#2f9ff1"/><stop offset=".53" stop-color="#4babf0"/><stop offset=".66" stop-color="#6ebbee"/><stop offset=".78" stop-color="#99ceed"/><stop offset=".85" stop-color="#b3d9ec"/></linearGradient></defs><g data-name="Layer 10"><path fill="url(#LJKIgoSN2gWnqmGBmAGoZa)" d="M53.81,23.55A2,2,0,0,0,52,22.38H36.45L43.09,4.7A2,2,0,0,0,41.22,2H25.1a2,2,0,0,0-1.83,1.19L10.18,32.74A2,2,0,0,0,12,35.55h13.5L19.14,59.49a2,2,0,0,0,3.44,1.82L53.5,25.69A2,2,0,0,0,53.81,23.55Z"/><path d="M53.81,23.55A2,2,0,0,0,52,22.38H36.45L43.09,4.7A2,2,0,0,0,41.22,2H25.1a2,2,0,0,0-1.83,1.19L10.18,32.74A2,2,0,0,0,12,35.55h13.5L19.14,59.49a2,2,0,0,0,3.44,1.82L53.5,25.69A2,2,0,0,0,53.81,23.55ZM25.23,52.17,30,34.06s0,0,0-.05a3.5,3.5,0,0,0,.05-.41s0,0,0-.05,0-.08,0-.13a2,2,0,0,0,0-.21c0-.06,0-.12,0-.18s0-.13-.06-.19a2,2,0,0,0-.08-.18l-.09-.16-.11-.16-.12-.15-.14-.13-.15-.12-.17-.1-.17-.09-.2-.08-.12,0h-.05l-.2,0-.2,0H15.08L26.41,6H38.33L31.69,23.68s0,.09,0,.13a1.39,1.39,0,0,0-.08.43s0,.09,0,.14,0,0,0,0a2,2,0,0,0,0,.23c0,.06,0,.11,0,.17s0,.12.06.19,0,.13.06.19.06.11.09.16.06.12.1.17l.12.15.12.14.15.12.16.12.15.08.21.1,0,0,.13,0,.21.06.23,0H47.61Z"/></g></svg>